<?xml version="1.0" encoding="UTF-8"?>
<svg id="Layer_2" data-name="Layer 2" xmlns="http://www.w3.org/2000/svg" viewBox="0 0 84.58 66.23">
  <defs>
    <style>
      .cls-1 {
        fill: #a3a59b;
      }
    </style>
  </defs>
  <g id="Layer_1-2" data-name="Layer 1">
    <g>
      <polyline id="tree" class="cls-1" points="42.29 0 35.24 10.86 28.19 21.71 34.27 20.22 31.72 24.16 21.15 40.44 29.97 38.28 29.96 38.3 17.62 57.3 38.67 52.52 42.29 51.7 45.91 52.52 66.96 57.3 54.63 38.3 54.61 38.28 63.44 40.44 52.86 24.16 50.31 20.22 56.39 21.71 49.34 10.86 42.29 0"/>
      <polygon id="trunk" class="cls-1" points="38.67 54.92 38.67 66.23 45.91 66.23 45.91 54.92 42.29 54.1 38.67 54.92"/>
      <g id="tree-2" data-name="tree">
        <path id="tree-3" data-name="tree" class="cls-1" d="M17.57,40.4l.31,.07c0-.63,.17-1.26,.52-1.81l6.9-10.62-3.42-5.26-1.59-2.44,3.78,.92-4.38-6.74-4.38-6.74-4.38,6.74-4.38,6.74,3.78-.92-1.59,2.44-6.57,10.12,5.48-1.34h0S0,43.37,0,43.37l13.07-2.97,2.25-.51,2.25,.51Z"/>
        <polygon id="trunk-2" data-name="trunk" class="cls-1" points="13.07 41.89 13.07 48.92 17.57 48.92 17.57 41.89 15.32 41.38 13.07 41.89"/>
      </g>
      <g id="tree-4" data-name="tree">
        <path id="tree-5" data-name="tree" class="cls-1" d="M76.92,31.57h0s5.48,1.33,5.48,1.33l-6.57-10.12-1.59-2.44,3.78,.92-4.38-6.74-4.38-6.74-4.38,6.74-4.38,6.74,3.78-.92-1.59,2.44-3.42,5.26,6.9,10.62c.36,.55,.53,1.18,.52,1.81l.31-.07,2.25-.51,2.25,.51,13.07,2.97-7.66-11.8Z"/>
        <polygon id="trunk-3" data-name="trunk" class="cls-1" points="67.01 41.89 67.01 48.92 71.51 48.92 71.51 41.89 69.26 41.38 67.01 41.89"/>
      </g>
    </g>
  </g>
</svg>