<?xml version="1.0" encoding="utf-8"?>
<!-- Generator: Adobe Illustrator 27.0.1, SVG Export Plug-In . SVG Version: 6.00 Build 0)  -->
<svg version="1.1" id="Layer_1" xmlns="http://www.w3.org/2000/svg" xmlns:xlink="http://www.w3.org/1999/xlink" x="0px" y="0px"
	 viewBox="0 0 1080 1920" style="enable-background:new 0 0 1080 1920;" xml:space="preserve">
<style type="text/css">
	.st0{fill:#616D63;}
	.st1{fill:#4D594F;}
	.st2{fill:#36403A;}
	.st3{fill:#353630;}
	.st4{fill:#222C26;}
	.st5{fill:#232625;}
</style>
<polygon class="st0" points="520.7,459.2 561.4,449.9 679.7,369 719.1,384 894.6,498.3 924.2,488.6 1024.7,542.7 1089.3,502.2 
	1089.3,914.8 413.8,930.3 "/>
<g>
	<polygon class="st1" points="-9.9,383.7 118,301.2 225.6,230.1 305.6,254.8 477.7,383.7 555,519.3 780.3,652.5 837.4,774.9 
		-9.9,882.9 	"/>
	<polygon class="st2" points="225.6,230.1 150.3,406.5 187.9,393.4 123.7,485 187.6,501.6 -9.9,773.1 -9.9,383.7 	"/>
</g>
<polygon class="st3" points="-37.2,726.8 78.4,707.4 122,676.3 502.8,576.9 639.4,648.8 882.6,676.3 1042.8,726.8 1042.8,1979.5 
	-37.2,1979.5 "/>
<path class="st4" d="M-4.7,879.7l67.4-48.5l97.8-1.3c0,0,35.2-27,54.8-41c19.6-14,156.4-81.2,156.4-81.2l97.8,45.5l203.4-74.9
	l144.7-11.8l66.5,11.8l144.7-11.8l60.6,11.8v1264.5l-1094,14V879.7z"/>
<path class="st5" d="M-11.7,1089.3c31-30.9,78.4-73,141.8-109.5c101.6-58.5,158.5-53.1,317-82.6c275.5-51.3,343.2-112.1,531.6-88.8
	c44.9,5.6,81.2,14,103.6,19.9c0,421.7,0,843.3,0,1265h-1094V1089.3z"/>
</svg>
