<?xml version="1.0" encoding="UTF-8"?>
<svg id="Layer_2" data-name="Layer 2" xmlns="http://www.w3.org/2000/svg" viewBox="0 0 59.01 77.37">
  <defs>
    <style>
      .cls-1 {
        fill: #a3a59b;
      }
    </style>
  </defs>
  <g id="Layer_1-2" data-name="Layer 1">
    <g id="jyH49k">
      <path class="cls-1" d="M4.31,10.9c.96,0,1.91,.03,2.87,0,1.09-.04,1.28-.33,.97-1.4-.27-.96-.56-1.9-.83-2.86-.46-1.62-.37-1.8,1.23-2.47C13.05,2.28,17.71,.96,22.56,.4c9.02-1.04,17.81-.09,26.34,3.09,.34,.13,.68,.27,1.02,.41,2.22,.92,2.26,1.01,1.53,3.34-.26,.84-.5,1.69-.76,2.53-.23,.76,.05,1.12,.84,1.12,1.36-.01,2.72-.02,4.08-.04,.29,0,.59-.05,.88-.05,2.08,.03,2.49,.22,2.51,2.28,.04,3.55-.04,7.13-.37,10.66-.82,8.7-2.96,17.09-6.57,25.07-3.52,7.79-7.96,15-14.06,21.07-2.26,2.25-4.63,4.39-6.99,6.55-1.37,1.25-1.48,1.22-2.96,.04-9.81-7.87-16.98-17.72-21.83-29.3C2.71,38.8,.69,30.05,.11,20.99-.07,18.1,.03,15.2,.01,12.3c0-1.02,.54-1.44,1.54-1.4,.92,.04,1.84,0,2.76,0,0,0,0,0,0-.01Z"/>
    </g>
  </g>
</svg>